<svg xmlns="http://www.w3.org/2000/svg" viewBox="0 0 265.28 68.707" height="91.609" width="353.707" xmlns:v="https://vecta.io/nano"><path d="M260.093 50.553h.719v-7.594h-.719zm-6.883 0h.719V47.35h1.859l1.672 3.203h.828l-1.609-3.062c-.109-.203-.187-.297-.187-.297v-.016c.828-.234 1.406-1.031 1.406-2.062 0-.906-.422-1.641-1.125-1.953-.281-.125-.625-.203-1.375-.203h-2.187zm.719-3.859v-3.062h1.5c.563 0 .828.063 1.047.188.438.234.672.703.672 1.328 0 .953-.562 1.547-1.469 1.547zm-3.022 3.859h.766l-2.719-7.594h-.781l-2.703 7.594h.766l.844-2.422h2.969zm-2.328-6.797l.281.984.969 2.75h-2.547l.984-2.75c.141-.359.297-.984.297-.984zm-5.356 6.797h.719v-7.594h-.719zm-5.727 0h4.141v-.672h-3.422v-6.922h-.719zm-8.875-3.797c0 2.25 1.594 3.922 3.625 3.922 1.547 0 2.406-1.016 2.406-1.016h.016l-.016.313v.578h.672v-3.625h-1.953v.672h1.266v1.281s-.891 1.109-2.328 1.109c-1.672 0-2.937-1.375-2.937-3.25 0-1.797 1.219-3.219 3-3.219 1.344 0 2.219.766 2.219.766l.391-.562s-.922-.891-2.641-.891c-2.125 0-3.719 1.719-3.719 3.922zm-1.57 3.797h.766l-2.719-7.594h-.781l-2.703 7.594h.766l.844-2.422h2.969zm-2.328-6.797l.281.984.969 2.75h-2.547l.984-2.75c.141-.359.297-.984.297-.984zm-10.782 2.953c0 2.219 1.563 3.969 3.75 3.969 1.813 0 2.828-1.172 2.828-1.172l-.422-.531s-.906 1.016-2.406 1.016c-1.75 0-3-1.484-3-3.297 0-1.781 1.25-3.172 2.984-3.172 1.391 0 2.25.844 2.25.844l.391-.547s-.891-.984-2.656-.984c-2.125 0-3.719 1.672-3.719 3.875zm-5.826 3.844h.719v-7.594h-.719zm-8.117 0h2.375c2.219 0 3.719-1.375 3.719-3.797 0-2.406-1.5-3.797-3.719-3.797h-2.375zm.719-.672v-6.25h1.594c1.797 0 3.031 1.109 3.031 3.125 0 2.031-1.219 3.125-3.031 3.125zm52.493.672h.719V47.35h1.859l1.672 3.203h.828l-1.609-3.062c-.109-.203-.187-.297-.187-.297v-.016c.828-.234 1.406-1.031 1.406-2.062 0-.906-.422-1.641-1.125-1.953-.281-.125-.625-.203-1.375-.203h-2.187zm.719-3.859v-3.062h1.5c.563 0 .828.063 1.047.188.438.234.672.703.672 1.328 0 .953-.562 1.547-1.469 1.547zm6.168 3.859h.719v-7.594h-.719zm-9.187 0h.766l-2.719-7.594h-.781l-2.703 7.594h.766l.844-2.422h2.969zm-2.328-6.797l.281.984.969 2.75h-2.547l.984-2.75c.141-.359.297-.984.297-.984zm-11.086 6.797h4.141v-.672h-3.422v-6.922h-.719zm5.727 0h.719v-7.594h-.719zm-14.602-3.797c0 2.25 1.594 3.922 3.625 3.922 1.547 0 2.406-1.016 2.406-1.016h.016l-.016.313v.578h.672v-3.625h-1.953v.672h1.266v1.281s-.891 1.109-2.328 1.109c-1.672 0-2.937-1.375-2.937-3.25 0-1.797 1.219-3.219 3-3.219 1.344 0 2.219.766 2.219.766l.391-.562s-.922-.891-2.641-.891c-2.125 0-3.719 1.719-3.719 3.922zm-1.57 3.797h.766l-2.719-7.594h-.781l-2.703 7.594h.766l.844-2.422h2.969zm-2.328-6.797l.281.984.969 2.75h-2.547l.984-2.75c.141-.359.297-.984.297-.984zm-10.781 2.953c0 2.219 1.563 3.969 3.75 3.969 1.813 0 2.828-1.172 2.828-1.172l-.422-.531s-.906 1.016-2.406 1.016c-1.75 0-3-1.484-3-3.297 0-1.781 1.25-3.172 2.984-3.172 1.391 0 2.25.844 2.25.844l.391-.547s-.891-.984-2.656-.984c-2.125 0-3.719 1.672-3.719 3.875zm-5.824 3.844h.719v-7.594h-.719zm-8.117 0h2.375c2.219 0 3.719-1.375 3.719-3.797 0-2.406-1.5-3.797-3.719-3.797h-2.375zm.719-.672v-6.25h1.594c1.797 0 3.031 1.109 3.031 3.125 0 2.031-1.219 3.125-3.031 3.125zm63.666-11.478h.719v-7.594h-.719zm-8.218 0h2.375c2.219 0 3.719-1.375 3.719-3.797 0-2.406-1.5-3.797-3.719-3.797h-2.375zm.719-.672v-6.25h1.594c1.797 0 3.031 1.109 3.031 3.125 0 2.031-1.219 3.125-3.031 3.125zm-8.862-1.969c0 1.688 1.156 2.766 2.828 2.766s2.828-1.078 2.828-2.766v-4.953h-.734v4.922c0 1.328-.828 2.109-2.094 2.109-1.281 0-2.094-.781-2.094-2.094v-4.937h-.734zm-4.942 2.641h.719v-6.922h2.656v-.672h-6.031v.672h2.656zm-8.498-.844s.828.969 2.344.969c1.391 0 2.234-.906 2.234-2.047 0-2.5-3.687-1.969-3.687-3.781 0-.672.609-1.297 1.547-1.297.969 0 1.625.641 1.625.641l.359-.625s-.687-.734-1.984-.734c-1.359 0-2.297.953-2.297 2.047 0 2.344 3.688 1.859 3.688 3.766 0 .828-.656 1.328-1.469 1.328-1.172 0-1.937-.844-1.937-.844zm-5.99.844h.719v-7.594h-.719zm-5.831 0h4.141v-.672h-3.422v-6.922h-.719zm-8.98-3.797c0 2.25 1.594 3.922 3.625 3.922 1.547 0 2.406-1.016 2.406-1.016h.016l-.016.313v.578h.672v-3.625h-1.953v.672h1.266v1.281s-.891 1.109-2.328 1.109c-1.672 0-2.937-1.375-2.937-3.25 0-1.797 1.219-3.219 3-3.219 1.344 0 2.219.766 2.219.766l.391-.562s-.922-.891-2.641-.891c-2.125 0-3.719 1.719-3.719 3.922zm-5.555 3.797h4.344v-.672h-3.625v-2.812h2.813v-.672h-2.812v-2.766h3.438v-.672h-4.156zm-8.227 0h2.375c2.219 0 3.719-1.375 3.719-3.797 0-2.406-1.5-3.797-3.719-3.797h-2.375zm.719-.672v-6.25h1.594c1.797 0 3.031 1.109 3.031 3.125 0 2.031-1.219 3.125-3.031 3.125zm47.306-1.968c0 1.688 1.156 2.766 2.828 2.766s2.828-1.078 2.828-2.766v-4.953h-.734v4.922c0 1.328-.828 2.109-2.094 2.109-1.281 0-2.094-.781-2.094-2.094v-4.937h-.734zm8.145 2.641h2.375c2.219 0 3.719-1.375 3.719-3.797 0-2.406-1.5-3.797-3.719-3.797h-2.375zm.719-.672v-6.25h1.594c1.797 0 3.031 1.109 3.031 3.125 0 2.031-1.219 3.125-3.031 3.125zm7.496.672h.719v-7.594h-.719zm-21.301 0h.719v-6.922h2.656v-.672h-6.031v.672h2.656zm-8.5-.844s.828.969 2.344.969c1.391 0 2.234-.906 2.234-2.047 0-2.5-3.687-1.969-3.687-3.781 0-.672.609-1.297 1.547-1.297.969 0 1.625.641 1.625.641l.359-.625s-.687-.734-1.984-.734c-1.359 0-2.297.953-2.297 2.047 0 2.344 3.688 1.859 3.688 3.766 0 .828-.656 1.328-1.469 1.328-1.172 0-1.937-.844-1.937-.844zm-5.988.844h.719v-7.594h-.719zm-5.832 0h4.141v-.672h-3.422v-6.922h-.719zm-8.98-3.797c0 2.25 1.594 3.922 3.625 3.922 1.547 0 2.406-1.016 2.406-1.016h.016l-.016.313v.578h.672v-3.625h-1.953v.672h1.266v1.281s-.891 1.109-2.328 1.109c-1.672 0-2.937-1.375-2.937-3.25 0-1.797 1.219-3.219 3-3.219 1.344 0 2.219.766 2.219.766l.391-.562s-.922-.891-2.641-.891c-2.125 0-3.719 1.719-3.719 3.922zm-5.555 3.797h4.344v-.672h-3.625V34.92h2.813v-.672h-2.812v-2.766h3.438v-.672h-4.156zm-8.227 0h2.375c2.219 0 3.719-1.375 3.719-3.797 0-2.406-1.5-3.797-3.719-3.797h-2.375zm.719-.672v-6.25h1.594c1.797 0 3.031 1.109 3.031 3.125 0 2.031-1.219 3.125-3.031 3.125zm58.874-11.479h.766l-2.719-7.594h-.781l-2.703 7.594h.766l.844-2.422h2.969zm-2.328-6.797l.281.984.969 2.75h-2.547l.984-2.75c.141-.359.297-.984.297-.984zm-.328-1.328h.656l-.734-1.281h-.828zm-6.101 8.125h.719v-6.922h2.656v-.672h-6.031v.672h2.656zm-4.976 0h.719v-7.594h-.719zm-6.611-.844s.828.969 2.344.969c1.391 0 2.234-.906 2.234-2.047 0-2.5-3.687-1.969-3.687-3.781 0-.672.609-1.297 1.547-1.297.969 0 1.625.641 1.625.641l.359-.625s-.687-.734-1.984-.734c-1.359 0-2.297.953-2.297 2.047 0 2.344 3.688 1.859 3.688 3.766 0 .828-.656 1.328-1.469 1.328-1.172 0-1.937-.844-1.937-.844zm-6.436.844h.719V23.05h1.859l1.672 3.203h.828l-1.609-3.062c-.109-.203-.187-.297-.187-.297v-.016c.828-.234 1.406-1.031 1.406-2.062 0-.906-.422-1.641-1.125-1.953-.281-.125-.625-.203-1.375-.203h-2.187zm.719-3.859v-3.062h1.5c.563 0 .828.063 1.047.188.438.234.672.703.672 1.328 0 .953-.562 1.547-1.469 1.547zm-6.934 3.859h4.344v-.672h-3.625v-2.812h2.813v-.672h-2.812v-2.766h3.438v-.672h-4.156zm-5.138 0h.75l2.75-7.594h-.781l-2.047 5.766c-.141.391-.281.984-.281.984h-.031l-.281-.984-2.047-5.766h-.781zm-5.091 0h.719v-7.594h-.719zm-8.323 0h.719v-5.469c0-.391-.062-1.016-.062-1.016h.016l.609 1.016 3.781 5.469h.703v-7.594h-.719v5.469c0 .391.063 1.031.063 1.031h-.031l-.609-1.031-3.766-5.469h-.703zm-8.139-2.641c0 1.688 1.156 2.766 2.828 2.766s2.828-1.078 2.828-2.766v-4.953h-.734v4.922c0 1.328-.828 2.109-2.094 2.109-1.281 0-2.094-.781-2.094-2.094v-4.937h-.734zm59.689 2.64h.766l-2.719-7.594h-.781l-2.703 7.594h.766l.844-2.422h2.969zm-2.328-6.797l.281.984.969 2.75h-2.547l.984-2.75c.141-.359.297-.984.297-.984zm-.328-1.328h.656l-.734-1.281h-.828zm-6.102 8.125h.719V19.33h2.656v-.672h-6.031v.672h2.656zm-11.586-.844s.828.969 2.344.969c1.391 0 2.234-.906 2.234-2.047 0-2.5-3.687-1.969-3.687-3.781 0-.672.609-1.297 1.547-1.297.969 0 1.625.641 1.625.641l.359-.625s-.687-.734-1.984-.734c-1.359 0-2.297.953-2.297 2.047 0 2.344 3.688 1.859 3.688 3.766 0 .828-.656 1.328-1.469 1.328-1.172 0-1.937-.844-1.937-.844zm6.609.844h.719v-7.594h-.719zm-13.047 0h.719v-3.203h1.859l1.672 3.203h.828l-1.609-3.062c-.109-.203-.187-.297-.187-.297v-.016c.828-.234 1.406-1.031 1.406-2.062 0-.906-.422-1.641-1.125-1.953-.281-.125-.625-.203-1.375-.203h-2.187zm.719-3.859V19.33h1.5c.563 0 .828.063 1.047.188.438.234.672.703.672 1.328 0 .953-.562 1.547-1.469 1.547zm-6.934 3.859h4.344v-.672h-3.625v-2.812h2.813v-.672h-2.812V19.33h3.438v-.672h-4.156zm-5.137 0h.75l2.75-7.594h-.781l-2.047 5.766c-.141.391-.281.984-.281.984h-.031l-.281-.984-2.047-5.766h-.781zm-13.418 0h.719v-5.469c0-.391-.062-1.016-.062-1.016h.016l.609 1.016 3.781 5.469h.703v-7.594h-.719v5.469c0 .391.063 1.031.063 1.031h-.031l-.609-1.031-3.766-5.469h-.703zm8.324 0h.719v-7.594h-.719zm-16.461-2.641c0 1.688 1.156 2.766 2.828 2.766s2.828-1.078 2.828-2.766v-4.953h-.734v4.922c0 1.328-.828 2.109-2.094 2.109-1.281 0-2.094-.781-2.094-2.094v-4.937h-.734zM169.426 44.74h4.859l-6.547-19.812h-4.969l-6.547 19.813h4.859l1.156-4.156h6zm-4.141-15.297l.781 3.406 1.078 3.859h-3.797l1.094-3.859c.359-1.234.781-3.406.781-3.406zm-28.66 5.344c0 5.875 4.078 10.281 10.109 10.281 5.047 0 7.766-3.312 7.766-3.312l-2.422-3.547s-2.219 2.438-5.125 2.438c-3.562 0-5.437-3.031-5.437-5.969 0-2.844 1.75-5.641 5.438-5.641 2.672 0 4.828 2.016 4.828 2.016l2.188-3.656s-2.453-2.797-7.234-2.797c-5.797 0-10.109 4.438-10.109 10.188zm.001 0c0 5.875 4.078 10.281 10.109 10.281 5.047 0 7.766-3.312 7.766-3.312l-2.422-3.547s-2.219 2.438-5.125 2.438c-3.562 0-5.437-3.031-5.437-5.969 0-2.844 1.75-5.641 5.438-5.641 2.672 0 4.828 2.016 4.828 2.016l2.188-3.656s-2.453-2.797-7.234-2.797c-5.797 0-10.109 4.438-10.109 10.188zm32.801 9.953h4.859l-6.547-19.812h-4.969l-6.547 19.813h4.859l1.156-4.156h6zm-4.141-15.297s.422 2.172.781 3.406l1.078 3.859h-3.797l1.094-3.859c.359-1.234.781-3.406.781-3.406zM130.021 44.74h1.859V25.271h-1.859zm-21.049 0h1.859V30.724c0-1.031-.156-2.641-.156-2.641h.047s.922 1.672 1.563 2.641l9.672 14.016h1.813V25.271h-1.859v14.016c0 1.016.156 2.625.156 2.625h-.047s-.922-1.656-1.562-2.625l-9.672-14.016h-1.812zm-20.588-6.781c0 4.313 2.969 7.109 7.281 7.109 4.281 0 7.219-2.797 7.219-7.109V25.271h-1.859v12.594c0 3.406-2.125 5.438-5.391 5.438-3.25 0-5.359-2.031-5.359-5.375V25.271h-1.891zm-56.68 20.418h.746v-1.672h1.488v1.672h.746v-3.816h-.746v1.543H32.45v-1.543h-.746zM51.54 50.33h2.199v-.602h-1.457v-1.074h1.324v-.602h-1.324v-.941h1.449v-.598H51.54zm-37.363 0h2.184v-.602h-1.437v-3.215h-.746zM46.872 8.678l.602.395 1.633-2.652.012-.004-.789 3.211.602.391 2.48-2.109.012.004-1.641 2.66.602.395 1.988-3.227-1.008-.656-2.25 1.961-.008-.008.758-2.926-1.008-.656zm-3.227-1.461l.844.363 2.578-3.031-.684-.293-1.984 2.398-.012-.004.238-3.145-.734-.312zM38.88 5.771l.723.188.375-1.539.23.063c.305.078.371.207.406.508l.152 1.27.805.207-.223-1.598c-.035-.184-.098-.414-.289-.48v-.008c.477.051.848-.234.953-.668.254-1.031-.68-1.242-1.453-1.441l-.777-.199zm1.48-2.93l.238.059c.359.094.754.234.645.68-.113.461-.531.41-.887.32l-.238-.062zm-5.613.5c.063-.668.43-1.324 1.164-1.254s.973.789.914 1.457c-.066.688-.41 1.352-1.168 1.277s-.973-.793-.91-1.48m-.773-.074c-.105 1.164.441 2.035 1.629 2.152 1.172.117 1.887-.648 1.996-1.797s-.473-2.02-1.633-2.133c-1.176-.113-1.883.613-1.992 1.777M31.583 5.33l.742-.035-.164-3.809-.742.031zm-4.32-2.672l.41-.066c.613-.102 1.281.273 1.406 1.094s-.391 1.387-1.008 1.488l-.41.066zm-.242 3.297l1.004-.164c1.121-.184 2.055-.738 1.824-2.23s-1.285-1.723-2.41-1.539l-1.004.164zm-3.359 1.086l.867-.297.019-4.027-.699.238.019 3.148-.008.004-1.82-2.535-.758.258zm-3.676 1.707l.668-.344-1.41-2.871.949-.492-.262-.539-2.566 1.332.266.535.949-.492zM15.86 6.932c-.273.082-.543.219-.809.406-.539.379-.898 1.008-.43 1.711.695 1.043 1.871-.148 2.273.449.188.285-.043.629-.277.789a1.74 1.74 0 0 1-.82.297l.32.609c.355-.141.535-.199.867-.434.617-.434.977-1.07.516-1.762-.703-1.055-1.895.121-2.258-.426-.227-.344-.016-.629.191-.777a1.89 1.89 0 0 1 .715-.301zm30.434 53.406l-.711.309.031.934-1.387.602-.625-.68-.762.332 2.785 2.934.777-.336zm-1.648 2.316l1-.434.098 1.664-.008.004zm5.371-4.652l-.605.387 1.465 2.426-.012.004-2.672-1.652-.77.492L49.38 62.9l.605-.387-1.465-2.426.008-.004 2.668 1.656.777-.496zm3.836-3.391l-.574.523.32.879-1.121 1.027-.805-.437-.617.563 3.559 1.855.625-.574zm-.832 2.738l.809-.742.617 1.543-.008.008zm2.32-4.582l-.484.582 2.379 2.086-.687.832.441.391 1.867-2.246-.445-.387-.691.828zm1.797-2.52l-.426.633 3.051 2.172.426-.629zm1.707-3.039l-1.059 1.969.512.289.695-1.297 2.738 1.555.363-.668zm1.875-4.852l-.27.746.688.613-.52 1.453-.91.004-.285.797 3.988-.086.289-.812zm.52 2.82l.375-1.047 1.25 1.063-.004.008zm.246-6.637l-.148.75 1.512.32-.051.238c-.062.316-.187.391-.48.441l-1.223.207-.168.836 1.543-.297c.176-.043.398-.117.453-.316h.012c-.035.492.262.859.688.949 1.012.215 1.18-.746 1.34-1.551l.16-.809zm2.914 1.398l-.051.246c-.074.375-.195.785-.633.691-.453-.098-.418-.531-.344-.898l.047-.246zm-2.602-6.555l-.031.793.836.371-.07 1.547-.863.289-.035.844 3.773-1.328.035-.863zm1.332 2.523l.047-1.113 1.508.621-.004.012zm-.777-3.691c-.113-.168-.215-.512-.246-.812-.09-.809.422-1.352 1.176-1.441s1.391.336 1.477 1.117c.031.273.019.535-.105.844l.629-.02c.074-.289.086-.625.059-.875-.141-1.289-.937-2-2.199-1.852-1.25.145-1.75 1.066-1.617 2.297.031.285.117.578.211.848zM1.974 28.584c-.129.262-.215.559-.262.883-.098.664.109 1.363.93 1.488 1.215.188 1.164-1.512 1.867-1.402.332.051.418.457.375.742-.043.297-.176.582-.352.82l.652.172c.145-.359.223-.535.285-.945.109-.762-.102-1.465-.906-1.586-1.23-.191-1.203 1.504-1.84 1.406-.398-.059-.461-.414-.422-.672.039-.266.133-.52.27-.746zm3.148 7.863l.004-.793-.852-.336.008-1.547.852-.324.004-.848-3.719 1.48-.004.863zm-1.426-2.465l-.004 1.113-1.531-.559v-.012zm1.758 4.832l-.098-.762-3.098.418-.141-1.086-.578.078.371 2.926.578-.074-.137-1.086zm.633 3.059l-.18-.742-3.605.91.176.742zm-2.961 2.875c.004.293.063.598.172.906.215.633.719 1.152 1.5.867 1.156-.422.34-1.898 1.004-2.141.316-.113.578.203.672.477.098.281.113.594.066.891l.656-.164c-.039-.387-.051-.578-.184-.973-.25-.723-.758-1.242-1.523-.961-1.176.426-.375 1.91-.98 2.129-.383.141-.598-.141-.684-.387-.086-.254-.117-.527-.102-.789zm5.984 4.574l-.34-.68-1.371.73-.109-.219c-.145-.285-.094-.422.102-.648l.824-.957-.383-.758-1.016 1.23c-.113.145-.238.348-.16.539l-.008.008c-.273-.402-.73-.5-1.117-.293-.918.492-.453 1.348-.086 2.074l.371.73zm-3.117.805L5.88 49.9c-.172-.336-.328-.734.066-.945.41-.219.652.141.82.473l.113.223zm5.262 2.355l-1.277-1.844-.48.348.848 1.219-.852.621-.766-1.109-.477.352.766 1.109-.742.543-.84-1.211-.477.348 1.27 1.836zm2.367 2.656l-.637-.676-3.539 1.73.516.547 2.75-1.387.008.008-1.434 2.785.555.59zm2.457 2.211l-.57-.488-2.367 2.945.574.484zm3.883 2.645l-.605-.387-1.465 2.422-.008-.004.258-3.195-.773-.492-1.957 3.242.605.387 1.465-2.426.008.008-.262 3.191.777.496zm3.176 1.457l-.844-.363-2.594 3.016.68.293 2-2.383.012.004-.258 3.141.734.32zm22.867-14.332c-.219.066-.508-.457-.754-1.09-.234-.605-.402-1.23-.402-1.23l-.629-2.691.906-1.262.785 2.715c.215.598 1.043 3.266.094 3.559m-1.863-1.41c.18.602.695 2.012 1.199 2.301.285.168.664.316.996.32l.039.051c-.141 1.063-.457 1.984-1.055 2.875l-.043.02-1.641-.484-.059-.016-.047-.031-.125-.02-.531-.086-.844-.137-.035-.047 1.176-7.992.078-.008zm-2.109-3.285c-.168.406-.633 2.023-1.137 8.035l-.668.102-.047-.039c-.012-.187-.066-.984-.094-1.863-.035-1.008-.035-2.129.098-2.57s.559-1.434.98-2.289c.207-.43.414-.824.582-1.102.082-.137.156-.246.215-.316l.07.043m3.242-3.305l-.066-.004-1.277 1.777-.359-1.832-.07-.019s-.937 1.188-1.91 2.668-1.977 3.254-2.113 4.441c-.133 1.176-.09 2.461-.016 3.449s.184 1.688.223 1.723c0 0 1.781 0 2.48.102.344.051 1.16.301 1.895.539s1.379.465 1.426.445c.523-.875 1.609-2.852 1.746-3.797.168-1.148.219-4.871-1.957-9.492m-11.57-25.941c.359-.051.438.082.516.148.121.105-.074.152-.246.191s-.312.02-.312.02l.043-.359m2.602 4.813l-.348-.043c-.465-.031-1.648-.062-2.027-.273l-.137-.176a2.39 2.39 0 0 0-.621-1.566l-.109.039c-.27.242-.414.82-.285 1.156.219.559.035.957-.492 1.094l-.152.031-1.016.383c.019.215.137 1.469.324 1.566.094.047 2.109-1.496 2.148-1.648l.078-.031c.133.016.273.066.398.105l1.824.605c.125.039.262.086.391.102.324-.227.16-.801.074-1.117l-.043-.148-.008-.078m-3.422-5.336c-.016.102-.039.277-.062.469-.004.063.293.012.453.098.141.074.039.574.023.711s.223.07.211.133c-.004.02-.027.668.051.777.148.078.695-.254.82-.477.336-.609.008-1.527-.141-1.762-.102-.164-.926-.129-1.164-.121h-.191zm-.621.098c.211-.488.406-.875.438-.937.051-.414.672-.473.945-.473.449 0 .82.227 1.02.629l.051.117.238.773c.035.117.18.625.266.809l.027.074.063.191c.141.438.457 1.379.789 1.617 1.707 1.246 1.941 4.949 1.941 5.105s-.625 5.648-1.094 7.734c-.113.512-.332 1.77.195 2.238l.074.055.016.098-1.664.156-.043-.055s.105-.293.223-.719.238-.992.277-1.543c.047-.715.273-1.887.367-3.184s.039-2.707-.457-3.914c.305-.84.387-1.289.402-1.406-.121-.047-.586-.219-1.086-.402-.59-.211-1.227-.43-1.437-.469-.312-.055-1.207 1.043-1.48 1.34-.156.176-.297.316-.391.367-.164.098 0 .508.047.645.07.207.234.625.035.809-.523.492-.387 1.082-.211 1.684.07.246.16.516.254.813a10.89 10.89 0 0 1 .422 5.371c.082.148 1.402.301 1.445.137.477-1.773.508-2.828.563-3.488s.141-.953.746-1.156l.051.027c.031.098 0 .559-.07 1.367l-.348 3.547c.539.168.395.395.059.598s-.887.422-1.254.656l-.059-.016c-.102-.219-.477-.406-.949-.574-.465-.172-.996-.32-1.379-.477-.418-.168-.699-1.23-.387-2.418.219-.828-.414-5.086-.574-6.199-.051-.363-.125-.594-.203-.773s-.168-.316-.242-.48c-.148-.336-.238-.789-.125-1.988.117-1.207.582-2.125 1.031-2.863l.617-.977c.172-.289.289-.543.32-.773.055-.484.301-1.141.531-1.672m15.399 40.164l-.195 1.875c.156.008 1.063.027 1.113-.207.086-.398.168-1.941-.246-2.152-.328-.168-.574.223-.672.484m-3.941 1.305l.012-.082.23-.062c.547-.148 1.473-.457 1.82-.887.5-.617 1.047-1.16 1.586-1.445.605-.324 1.348-.492 1.895.457.383.668.266 1.766.137 2.516l-.047.25-.016.117c0 .711-2.766.488-2.766.066l.344-1.793c-.348.305-1.238 1.066-1.598 1.172-.574.168-1.168.168-1.586-.289zm-16.477-3.699l-.043.039-.637-.062-.035-.039c-.504-6.012-.969-7.629-1.137-8.035l.07-.043c.059.07.133.18.215.316.168.277.375.672.586 1.102.418.855.844 1.844.977 2.289.25.832.031 4.035.004 4.434m-2.992-8.059l1.176 7.992-.035.047-.844.137-.531.086-.121.02-.051.027-.059.02c-.543.172-1.094.324-1.641.48l-.043-.016c-.598-.891-.914-1.812-1.055-2.875l.039-.051c.129 0 .504-.031.996-.316.508-.297 1.023-1.723 1.199-2.305l.891-3.254.078.008m-1.047-.355l-.625 2.691c-.016.043-.684 2.465-1.16 2.32-1.055-.328.082-3.523.094-3.559l.785-2.715zm4.742 4.043c-.137-1.187-1.145-2.965-2.113-4.441s-1.91-2.668-1.91-2.668l-.07.02-.359 1.832-1.277-1.781-.066.008c-2.18 4.621-2.125 8.344-1.957 9.492.086.578.523 1.527.938 2.332s.809 1.465.855 1.484l1.379-.465c.734-.238 1.551-.488 1.895-.539.699-.102 2.48-.102 2.52-.137 0 0 .434-2.785.168-5.137m-8.25 6.765c-.023-.062-.27-.691-.676-.484s-.328 1.754-.242 2.152c.051.234.906.215 1.113.207zm3.938 1.305c-.43.477-1.02.477-1.59.309-.363-.105-1.254-.867-1.602-1.172l.344 1.785c-.102.332-1.172.387-1.281.391-1.234.07-1.484-.266-1.484-.449l-.016-.117-.047-.25c-.129-.75-.246-1.848.137-2.516.547-.949 1.289-.781 1.895-.457.539.285 1.086.828 1.586 1.445.348.43 1.273.738 1.82.887l.184.051c.102.027.074.078.055.094m14.707 8.582l-.738.148.707 3.801.754-.16zm-9.852.031l-.645 3.809.719.109.047-.035.59-3.758zM7.267 23.678l-3.504-1.297-.051.027-.27.691.023.055 3.508 1.277.051-.023.266-.676-.023-.055m4.656-8.055l-2.832-2.48-.055.004-.453.586.008.059 2.84 2.469.059-.004.438-.574-.004-.059m46.449-1.781l.008-.055-.453-.586-.059-.008-2.828 2.48-.004.059.438.574.059.008zm5.148 9.313l-.27-.695-.051-.023-3.504 1.293-.023.055.266.68.051.023 3.508-1.277.023-.055M42.345 66.713c-.027-.012-.102-.043-.211-.102-.848-.469-1.414-1.348-1.672-2.289-.426-1.781.188-2.664.297-2.801 11.23-3.199 19.652-13.578 20.078-26.184.094-2.781-.207-5.484-.852-8.047.063-.168.523-1.223 2.238-1.73.938-.25 1.672-.125 2.172.055.254.094.547.238.758.418 4.289 17.313-5.422 35.641-22.809 40.68m22.582-41.77l-.121-.074c-.863-.516-1.922-.578-2.879-.328-1.535.457-2.094 1.348-2.254 1.68-.293-1.23-.645-2.16-1.109-3.332l.102.027c.852.188 1.863-.16 2.598-.547.809-.457 1.594-1.18 1.898-2.102l.031-.102c.633 1.555 1.266 3.125 1.734 4.777m-2.27-5.73c-.062.77-.488 1.469-1.055 1.965l-.059-.055c.242-.41.262-.937.016-1.383-.082-.141-.164-.258-.301-.355l.019-.078c.156-.023.316-.078.465-.164.289-.172.492-.437.59-.738l.078-.004.246.602c.004.012.008.086 0 .211m-1.246-.66a.64.64 0 0 1-.891-.246c-.18-.32-.074-.73.238-.914a.64.64 0 0 1 .891.246c.18.32.074.73-.238.914m-.066-1.906c-.301-.062-.629-.016-.918.156-.145.086-.246.195-.367.336l-.07-.02c-.105-.656-.668-1.148-1.332-1.129l-.016-.082c.699-.258 1.5-.289 2.184.043.109.055.168.098.168.098l.008.008.383.523-.039.066m-1.062-1.664c-.352-.09-1.426-.254-2.82.617-1.395.93-1.719 1.852-1.789 2.145-.754-.996-1.363-1.777-2.254-2.656.359.027 1.391-.027 2.543-1.164 1.152-1.211 1.184-2.48 1.16-2.871 1.145 1.23 2.156 2.582 3.16 3.93m-3.863-4.355c-.07.91-.633 1.793-1.234 2.422-1.289 1.273-2.41 1.16-2.586 1.133-10.629-10.664-27.656-10.703-38.328.004-.172.031-1.273.184-2.559-1.086-.68-.715-.973-1.414-1.098-1.934-.066-.258-.109-.574-.086-.844 12.789-12.871 33.223-12.789 45.895.113.004.027.004.094-.004.191m-46.582.52c0 1.023.473 1.996 1.164 2.723 1.152 1.141 2.184 1.191 2.543 1.168-.891.879-1.5 1.656-2.254 2.652l-.031-.105c-.266-.852-1.062-1.574-1.758-2.035-.789-.492-1.789-.832-2.719-.641l-.102.023c1.004-1.352 2.016-2.703 3.16-3.93l-.004.145m-3.777 4.77c.68-.332 1.48-.301 2.18-.047l-.016.082c-.465-.012-.922.23-1.172.676a1.08 1.08 0 0 0-.152.445l-.07.02a1.32 1.32 0 0 0-.375-.328 1.28 1.28 0 0 0-.918-.156l-.039-.066.383-.523c.008-.008.066-.051.18-.102m.066 1.434a.69.69 0 0 1 .238.918c-.184.32-.578.43-.891.246s-.422-.594-.242-.918a.65.65 0 0 1 .895-.246m-.984 1.754c.145.086.289.117.469.16l.016.07c-.5.422-.633 1.168-.285 1.754l-.062.051c-.562-.492-.992-1.191-1.055-1.961-.008-.129-.004-.203-.004-.203l.004-.012.254-.602.074.004a1.35 1.35 0 0 0 .59.738m-1.371 1.012c.098.355.496 1.395 1.93 2.199 1.477.777 2.418.605 2.695.52-.461 1.172-.812 2.102-1.105 3.336-.16-.332-.719-1.223-2.254-1.68-1.598-.422-2.68.184-3 .398.469-1.648 1.102-3.219 1.734-4.773m-1.879 5.766c.828-.523 1.859-.59 2.789-.344 1.715.512 2.145 1.582 2.207 1.754-.504 1.949-.793 3.984-.867 6.078-.453 13.344 8.164 24.836 20.191 28.18.105.133.68.957.254 2.738-.262.957-.723 1.578-1.117 1.961-.203.191-.457.395-.711.516C10.396 62.697.181 49.026.716 33.178c.086-2.48.395-4.852.984-7.164a1.8 1.8 0 0 1 .191-.133m23.742 41.117c.926-.477 1.563-1.461 1.836-2.465.383-1.598-.086-2.539-.289-2.852 1.188.359 2.145.508 3.363.684l-.07.078c-.586.66-.797 1.738-.84 2.582-.019.949.195 2.012.82 2.742l.07.078c-1.625-.215-3.266-.437-4.891-.848m4.816-.984l.074-.027c.223.422.656.707 1.156.707.156 0 .297-.016.449-.086l.055.051c-.059.156-.09.32-.09.496 0 .344.121.66.324.898l-.035.066-.629-.078c-.012-.004-.078-.035-.18-.109-.617-.437-.992-1.168-1.125-1.918m1.23-1.34a.66.66 0 0 1 .652.668c0 .371-.293.672-.652.672s-.652-.301-.652-.672a.66.66 0 0 1 .652-.668m.414-1.074c0 .148.012.281.051.41l-.051.051c-.129-.043-.27-.066-.414-.066-.523 0-.973.313-1.184.766l-.078-.023c.113-.805.477-1.598 1.102-2.109.102-.082.168-.121.168-.121l1.016-.141.027.074c-.387.238-.637.668-.637 1.16m.66 0c0-.367.293-.668.652-.668s.652.301.652.668-.293.672-.652.672-.652-.301-.652-.672m1.07 1.742a1.46 1.46 0 0 0 .09.508l-.051.051a1.29 1.29 0 0 0-.457-.094 1.35 1.35 0 0 0-.453.082l-.051-.055a1.36 1.36 0 0 0 .094-.492c0-.148-.027-.289-.07-.422l.051-.051a1.35 1.35 0 0 0 .43.082c.152 0 .293-.02.426-.066l.055.055c-.043.129-.062.262-.062.402m-1.07 1.813c0-.367.293-.668.652-.668s.652.301.652.668-.293.672-.652.672-.652-.301-.652-.672m1.316-4.715l.027-.074 1.016.137c.016.004.082.043.184.125s.238.203.379.379c.289.348.605.898.715 1.699l-.074.027c-.219-.434-.668-.738-1.18-.738-.152 0-.305.027-.441.082l-.055-.055c.043-.133.082-.277.082-.422 0-.496-.262-.926-.652-1.16m1.066 3.574a.66.66 0 0 1-.648-.672c0-.371.289-.668.648-.668s.652.297.652.668a.66.66 0 0 1-.652.672m-.742 2.035c.203-.238.328-.551.328-.895 0-.172-.043-.316-.102-.496l.055-.051c.145.055.301.086.461.086.5 0 .934-.285 1.156-.707l.078.027c-.137.75-.512 1.48-1.129 1.918-.102.074-.168.105-.168.105l-.012.004-.633.078-.035-.07M9.118 19.131c.313.184.422.594.238.914s-.578.43-.891.246-.418-.594-.238-.918a.64.64 0 0 1 .891-.242m-1.492-2.164c.18-.32.578-.43.891-.246s.418.594.238.918a.64.64 0 0 1-.891.242c-.312-.184-.418-.594-.238-.914m-1 1.996a1.25 1.25 0 0 0 .465-.801l.074-.02c.191.25.453.414.758.48l.016.07c-.219.199-.383.453-.441.754l-.07.02a1.32 1.32 0 0 0-.309-.258c-.152-.086-.312-.148-.473-.172l-.019-.074m-.238 2.769c.672.035 1.246-.453 1.363-1.113l.07-.02c.094.102.195.207.316.281a1.27 1.27 0 0 0 1.301 0l.055.063-.625.836a.99.99 0 0 1-.195.102 3.01 3.01 0 0 1-.512.148c-.437.078-1.059.086-1.793-.215l.019-.082m-.254-.773c-.312-.184-.418-.594-.238-.914s.578-.43.891-.246.418.594.238.918a.64.64 0 0 1-.891.242m3.141-4.418l.059-.059c.621.5 1.105 1.223 1.223 2.031.019.137.019.215.019.215l-.387.977-.078-.02a1.35 1.35 0 0 0-.66-1.145c-.121-.074-.238-.129-.367-.156l-.019-.074a1.4 1.4 0 0 0 .266-.332c.262-.465.223-1.023-.055-1.437m50.824 18.77c-.516 15.137-12.871 26.977-27.602 26.449S6.247 48.533 6.763 33.397 19.634 6.416 34.36 6.947s26.254 13.227 25.738 28.363m.441-13.469c-.734.305-1.582.375-2.328.074-.121-.047-.187-.09-.187-.09l-.629-.832.055-.062c.391.227.879.234 1.297-.012.125-.074.227-.152.316-.25l.07.02a1.43 1.43 0 0 0 .148.402c.262.465.75.711 1.238.672l.019.078m.445-1.762c.18.32.074.73-.238.918s-.711.074-.891-.246-.074-.73.238-.918.711-.074.891.246m-1.637-1.574c.148-.086.281-.199.379-.332l.074.02c.055.34.184.594.441.816l-.019.07c-.305.047-.578.203-.781.438l-.07-.02c-.055-.297-.191-.57-.414-.77l.019-.074c.129-.027.25-.074.371-.148m-.984-1.75c.313-.184.711-.074.891.246s.074.73-.238.918-.711.074-.891-.246-.074-.73.238-.918m.289 2.66a.68.68 0 0 1-.238.914c-.312.184-.711.074-.891-.246s-.074-.73.238-.914a.64.64 0 0 1 .891.246m-.809-1.047l-.019.07c-.133.031-.273.07-.395.141a1.35 1.35 0 0 0-.652 1.16l-.078.016-.391-.977c-.004-.016-.004-.09.012-.223a2.8 2.8 0 0 1 .133-.531c.148-.43.457-.984 1.074-1.484l.059.055c-.363.582-.242 1.34.258 1.773M36.349 67.846c.25-.266.926-1.141.891-2.82-.086-1.703-.703-2.453-.91-2.66 1.219-.176 2.176-.324 3.363-.684-.203.313-.676 1.254-.289 2.852.441 1.629 1.496 2.289 1.836 2.465-1.625.41-3.266.633-4.891.848M34.595.021C16.146-.643.669 14.193.021 33.154-.62 52.115 13.814 68.021 32.263 68.686s33.93-14.172 34.574-33.133S53.048.682 34.595.021M24.177 34.26c.141-.281.473-.395.746-.25s.383.488.246.77-.477.391-.75.25a.58.58 0 0 1-.242-.77m-10.074 0c.141-.281.473-.395.746-.25s.383.488.246.77-.477.391-.75.25a.58.58 0 0 1-.242-.77M33.47 11.014c.359-.023.801.023 1.102.328l.957-1.207-.746-.141-.145.48-.664.031c-.117 0 .055-.391.109-.582l-.453-.395-.453.469c.297.656.383.512-.285.625l-.039-.02-.328-.598-.68.383.973.75c.074-.023.336-.105.652-.125m-2.48 1.406a.39.39 0 0 1 .387.398c0 .219-.172.398-.387.398s-.387-.18-.387-.398a.39.39 0 0 1 .387-.398m-.5-1.395a.39.39 0 0 1 .387.398c0 .219-.172.398-.387.398s-.387-.18-.387-.398a.39.39 0 0 1 .387-.398m.27-1.277c.215 0 .387.18.387.398s-.172.398-.387.398-.387-.18-.387-.398.172-.398.387-.398m1.051-.961c.211 0 .387.18.387.398s-.176.398-.387.398-.387-.18-.387-.398.172-.398.387-.398m1.598-.484c.215 0 .387.18.387.398s-.172.398-.387.398-.387-.18-.387-.398.172-.398.387-.398m1.445.148c.211 0 .387.18.387.398s-.176.398-.387.398-.387-.18-.387-.398.172-.398.387-.398m1.441.633c.215 0 .387.18.387.398s-.172.398-.387.398-.387-.18-.387-.398.176-.398.387-.398m.512 1.355c.215 0 .387.18.387.398s-.172.398-.387.398-.387-.18-.387-.398.172-.398.387-.398m-.492 1.355c.215 0 .387.18.387.398s-.172.398-.387.398-.387-.18-.387-.398.176-.398.387-.398m-2.867 20.848l3.633-.926.051.047c0 .012-.164 1.965-3.187 2.418-1.637.246-2.578-.992-3.012-2.371-.094-.301-.129-.504-.129-.504l.059-.043zm15.23-13.238c.719.105 1.359-.668 1.363-.672l.066.008c0 .004.43.898 1.152 1.121s1.484-.32 1.488-.324l.055.059-.906 1.25-.055.012s-.371-.223-1.098-.449-1.809-.445-3.227-.445-2.504.223-3.23.445-1.098.449-1.098.449l-.055-.012-.906-1.25.055-.059c.004.004.77.543 1.488.324s1.152-1.117 1.152-1.121l.066-.008c.004.004.645.777 1.363.672s1.137-.852 1.137-.855l.07.004s.398.742 1.117.852m-1.113-2.875c.258 0 .469.215.469.477s-.211.48-.469.48-.465-.215-.465-.48a.47.47 0 0 1 .465-.477m.547.898c.258 0 .469.215.469.477s-.211.48-.469.48-.465-.215-.465-.48.211-.477.465-.477m-1.156 0a.47.47 0 0 1 .465.477c0 .266-.207.48-.465.48s-.465-.215-.465-.48a.47.47 0 0 1 .465-.477m3.301-.086a.48.48 0 0 1 .379.555c-.047.262-.285.434-.539.387a.48.48 0 0 1-.379-.555c.043-.258.285-.434.539-.387m-5.52 0c.254-.047.496.129.539.387s-.125.508-.375.555-.496-.125-.543-.387a.48.48 0 0 1 .379-.555m-3.289.578c.227-.121.508-.027.625.211s.023.52-.203.641-.512.027-.625-.207-.027-.523.203-.645m-.094 1.055c.23-.117.512-.023.629.211a.49.49 0 0 1-.203.645c-.23.117-.512.023-.629-.211a.49.49 0 0 1 .203-.645m1.031-.539a.46.46 0 0 1 .629.211c.117.234.023.52-.203.641s-.512.027-.625-.207-.027-.523.199-.645m11.273-.516c.23.121.32.406.203.645s-.395.328-.625.207-.32-.406-.203-.641.398-.332.625-.211m-.937.516a.49.49 0 0 1 .203.645.46.46 0 0 1-.629.207c-.227-.121-.32-.406-.203-.641a.46.46 0 0 1 .629-.211m3.492 10.574l.219-.043c.32 1.094.285 2.23-.66 3.203-1.098 1.125-2.055 1.008-3.098.695-.082-.094-.055-.246.023-.242 1.598.09 3.602-1.969 3.516-3.613m-4.215 3.09c-.094-.297.066-.621.355-.719s.609.066.703.367-.066.625-.359.719-.605-.066-.699-.367m3.043-3.125a.58.58 0 0 1 .355-.723.56.56 0 0 1 .703.371c.094.297-.066.621-.359.719s-.605-.066-.699-.367m-2.91 4.258l.219-.043c.32 1.094.285 2.23-.66 3.199-1.094 1.129-2.055 1.012-3.098.695-.082-.094-.055-.246.023-.242 1.598.09 3.602-1.969 3.516-3.609m-4.215 3.063c-.094-.301.066-.621.359-.719a.55.55 0 0 1 .699.367c.094.301-.062.621-.355.719s-.605-.066-.703-.367m3.043-3.125a.58.58 0 0 1 .355-.723c.293-.098.609.066.703.367s-.062.625-.355.723-.609-.07-.703-.367m-11.992-4.16c-.086 1.645 1.918 3.703 3.516 3.613l.039.227c-1.059.328-2.02.445-3.113-.68-.945-.973-.984-2.109-.676-3.18zm4.223 3.09c-.098.301-.41.465-.703.367s-.449-.418-.355-.719.41-.465.699-.367.453.422.359.719m-3.043-3.125c-.094.301-.41.465-.699.367s-.453-.422-.359-.719a.56.56 0 0 1 .703-.371.58.58 0 0 1 .355.723m2.902 4.258c-.086 1.641 1.918 3.699 3.512 3.609l.043.23c-1.062.328-2.02.445-3.113-.684-.945-.969-.984-2.105-.676-3.18zm4.223 3.063c-.098.301-.41.465-.703.367a.57.57 0 0 1-.355-.719.55.55 0 0 1 .699-.367c.293.098.453.418.359.719m-3.043-3.125a.56.56 0 0 1-.703.367c-.293-.098-.449-.422-.355-.723s.41-.465.699-.367a.58.58 0 0 1 .359.723m11.383-7.406c.086-1.641-1.918-3.699-3.516-3.609l-.043-.23c1.063-.328 2.02-.445 3.117.68.945.973.98 2.109.672 3.184zm-4.383-3.031a.55.55 0 0 1 .699-.367.58.58 0 0 1 .359.723c-.098.301-.41.465-.703.367s-.453-.422-.355-.723m3.043 3.129a.55.55 0 0 1 .699-.367c.293.098.453.418.359.719s-.41.465-.703.367a.57.57 0 0 1-.355-.719m-14.734-.168l-.219.043c-.32-1.094-.285-2.23.66-3.203 1.098-1.125 2.055-1.008 3.098-.691.082.09.055.246-.023.238-1.598-.086-3.602 1.973-3.516 3.613m4.359-3.031c.098.301-.062.625-.355.723s-.605-.066-.703-.367a.58.58 0 0 1 .359-.723c.289-.098.605.066.699.367m-3.043 3.129a.57.57 0 0 1-.355.719c-.293.098-.605-.066-.703-.367s.066-.621.359-.719a.55.55 0 0 1 .699.367m1.215 7.773l.043.043v1.516l-.043.043h-1.473l-.043-.043v-1.516l.043-.043zm12.496 0l.039.043v1.516l-.039.043h-1.477l-.043-.043v-1.516l.043-.043zm-5.855 4.32v.059l-1.043 1.074h-.055l-1.047-1.074.004-.059 1.043-1.07h.055zm8.672-10.891v.063l-1.043 1.07h-.059l-1.043-1.07v-.062l1.043-1.07h.059zm-17.602.031v.059l-1.043 1.074h-.059l-1.043-1.074v-.059l1.043-1.07h.059zm4.07-3.02l1.117 1.145-.004-2.316.758-.828.07.031.004 3.977.664.656v-5.355l.758-.801.07.031.008 6.988c.188.195.309.273.23.316 0 0-.348.188-.793.371s-.984.363-1.367.344c-.098-.004-.555-.078-.66-.098L44.7 26.33h-.563v.449h-.457l-.004-.461h-.562l-.004 1.645c-.168-.039-.602-.18-1.07-.168-.699.016-1.547.422-1.547.422l-.422-.375-.004-.059 3.727-3.777zm-3.641 28.035a7.32 7.32 0 0 1 1.457.039c2.156.273 3.293.961 3.297.961l-.008.074c-.004.004-.898.395-3.199.105-1.391-.172-2.164-1.035-2.164-1.035l.019-.07s.227-.047.598-.074m7.645-3.934l.145-1.41 2.441-2.531c.086-.215.09-.656.082-.887-.277-5.414 5.805-4.977 5.75-1.391-.055 3.395-4.516 3.09-3.687.242.207-.707 1.109-.848 1.371-.387.395.695-.098 1.164-.645 1.16.047.109.301.371.652.418.469.063 1.234-.375 1.289-1.121.148-1.852-1.945-2.266-2.961-1.363-.66.695-.871 1.344-.73 2.418.09.656.496 1.316.977 1.738.102.09.164.133.164.133l-.035.074s-.758-.227-1.359-.457l-3.383 3.395zm-6.32 5.891c.094.012.168.023.211.043l.019.133-6.402 6.137-1.035.113c-.121.012-.223.016-.281.004l-.047-.141 6.613-6.336.063-.023c.375.039.672.051.859.07M27.15 52.041c.371.027.598.074.598.074.105.02-.062.152-.125.207-.555.496-1.289.809-2.02.898-1.148.145-1.949.117-2.461.059s-.738-.164-.738-.164l-.008-.074s.285-.172.844-.379c1.184-.441 2.641-.715 3.91-.621m5.68 8.246l-.047.141c-.059.012-.156.008-.277 0-.246-.02-.605-.062-.992-.094l-6.449-6.16.019-.133c.043-.02.117-.031.211-.043.188-.02.484-.031.859-.07zM10.157 39.893c-.145-.141.5-.672.531-.707l.113-.004.672.641.461.441.125.117 1.059-1.125c.133-.152.648.504.688.543l.004.121-1.039 1.145 1.082 1.035 1.754-1.934c.137-.152.652.512.688.543l.004.117-1.754 1.934 4.629 4.445.164 1.008c.016.129.023.234.019.301l-.137.063-5.32-5.102-1.93 2.125c-.137.148-.656-.516-.687-.547l-.004-.117 1.934-2.121-1.082-1.043-1.207 1.328c-.137.148-.656-.512-.687-.547l-.004-.117 1.203-1.32zm20.41 10.93l-.066-.016-.445-1.363.055-.051 1.168.621.012.066zm.227-9.09c-.207-1.555-.355-1.465.445-.766l.012.051-.363.691c.23-.055.703-.152 1.238-.238l-.512-.527v-.059l.594-.609h.059l.594.609v.059l-.477.488c.449-.066.922-.117 1.324-.125l-.578-.594v-.059l.594-.609h.055l.594.609v.059l-.574.594c.379 0 .816.031 1.238.078l-.43-.441v-.059l.59-.609.082.023c-.336-1.359-.676-2.387-.727-2.543-.273-.07-.539-.148-.82-.141-.414.008-1.02.176-1.418.32l-.051-.059c.816-1.687 1.523-2.812 1.523-2.812h.066a33.4 33.4 0 0 0 .98 1.762c.547 1.059 1.23 2.488 1.766 3.992l.367-.32.066.035-.148 1.133c.336 1.09.57 2.188.605 3.188l.367-.215.063.047-.43 1.629c-.023 1.18-.121 2.313-.238 3.293l.277-.133.055.055-.508 1.41c-.18 1.188-.352 1.945-.352 1.945-.027.031-.465.148-1.043.266s-1.297.238-1.863.238-1.301-.121-1.891-.238-1.031-.234-1.031-.234c-.031-.059-.133-.434-.039-.453 0 0 1.754-.324 2.875-.324.387 0 .961.039 1.094.047.027-.059.094-.414.172-.652-.434-.051-.883-.086-1.27-.082-1.156.008-2.949.367-2.949.367l-.27-.914c.027-.047.512-.187 1.148-.328l.344-.074-.672-.691v-.059l.719-.742h.059l.719.742v.059l-.641.656c.469-.086.969-.152 1.406-.164l-.711-.73v-.059l.719-.742h.059l.719.742v.059l-.707.73h.059c.355 0 .781.051 1.188.121l-.562-.57v-.059l.719-.742h.059l.445.445c.148-.703.285-1.512.363-2.387-.699-.094-1.547-.191-2.211-.187-1.367.008-3.488.414-3.488.414l-.09-1.051-.43-1.559.059-.047 1.293.734.008.066-.73.75c.285-.059.836-.16 1.461-.246l-.797-.812v-.062l.832-.852h.059l.832.852v.063l-.773.793c.578-.074 1.199-.133 1.723-.141l-.824-.848v-.059l.832-.855h.055l.832.855v.059l-.828.848c.492 0 1.07.047 1.621.109l-.703-.719v-.062l.832-.852h.059l.426.438c-.035-.832-.137-1.66-.277-2.48-.633-.094-1.383-.18-1.98-.176-1.23.008-3.125.414-3.125.414-.117.023 0-.238.129-.746zm15.707-7.312l-.012-5.426-.664.676v3.91l-.07.027-.746-.75-.012-2.355-1.133 1.141h-.059l-2.613-2.676c-.062-.078.367-.379 1.285-.379.391 0 .93.281 1.305.395.914.281 1.359.414 2.277.082.258-.094.43-.184.43-.184l.758-.785.07.031v7.031l-.066.027zm3-12.266l.066-.027.75.75.012 2.168 1.031-1.051h.055l3.66 3.754c-.203.203-1.383.848-2.145.809-.098-.004-.555-.078-.66-.098v-2.145h-.543v.465h-.457v-.465h-.594v1.637c-.145-.062-.645-.187-1.117-.187-.5 0-1.254.379-1.469.434l.637.699c.031-.031.313-.309 1.285-.309.387 0 .93.281 1.301.395.914.281 1.359.414 2.277.082.262-.094.43-.184.43-.184l.047.066-2.672 2.695h-.055l-1.012-1.039v2.16l-.762.781-.066-.031.008-3.75-.547-.562-.129-.125v5.207l-.758.801-.07-.031v-6.844l-.367-.371-.004-.062.371-.375V20.6l.07-.031.746.77.012 5.227.676-.691zm3.84-3.18c.23-.117.508-.023.625.211s.027.523-.203.645-.508.023-.625-.211-.027-.523.203-.645m-32.531.559c.715.105 1.359-.668 1.359-.672l.07.012s.426.895 1.148 1.117 1.488-.32 1.492-.32l.055.059-.906 1.246-.055.012s-.371-.223-1.098-.445-1.812-.449-3.23-.449-2.5.223-3.227.449-1.102.445-1.102.445l-.051-.012-.906-1.246.055-.059s.766.539 1.488.32 1.148-1.117 1.152-1.117l.066-.012c.004.004.645.777 1.359.672.453-.066.914-.445 1.141-.852h.07s.395.746 1.117.852m-4.047-2.539a.47.47 0 0 1 .539.391c.047.258-.121.508-.375.555a.47.47 0 0 1-.539-.391.48.48 0 0 1 .375-.555m-.387.984c.254-.047.496.129.539.387s-.121.508-.375.555-.496-.129-.543-.387a.48.48 0 0 1 .379-.555m1.141-.207c.254-.047.496.129.539.387s-.125.512-.375.555-.496-.125-.543-.387a.48.48 0 0 1 .379-.555m-4.07.277c.23-.117.512-.023.629.211s.023.523-.203.641-.512.027-.625-.207-.027-.523.199-.645m-.09 1.059c.23-.121.512-.027.625.207s.027.523-.199.645a.46.46 0 0 1-.629-.211c-.117-.234-.023-.523.203-.641m1.031-.543c.23-.117.512-.023.629.211s.023.523-.203.641a.46.46 0 0 1-.629-.207c-.113-.234-.023-.523.203-.645m5.309-1.906c.258 0 .465.215.465.48a.47.47 0 0 1-.465.477.47.47 0 0 1-.465-.477c0-.266.207-.48.465-.48m.547.898c.258 0 .465.215.465.48a.47.47 0 0 1-.465.477.47.47 0 0 1-.465-.477c0-.266.207-.48.465-.48m-1.156 0c.254 0 .465.215.465.48s-.211.477-.465.477-.469-.215-.469-.477.211-.48.469-.48m3.469-.562c.254.047.422.297.379.555a.47.47 0 0 1-.539.391c-.254-.047-.422-.297-.379-.555a.47.47 0 0 1 .539-.391m.387.984a.48.48 0 0 1 .379.555c-.043.258-.285.434-.539.387a.48.48 0 0 1-.379-.555.47.47 0 0 1 .539-.387m-1.141-.207c.254.047.426.293.379.555s-.285.434-.539.387-.422-.293-.379-.555a.47.47 0 0 1 .539-.387m3.949.277c.23.121.32.41.203.645s-.395.328-.625.207a.48.48 0 0 1-.203-.641c.117-.234.398-.328.625-.211m.094 1.059c.227.117.316.406.203.641a.46.46 0 0 1-.629.211.49.49 0 0 1-.203-.645.46.46 0 0 1 .629-.207m-1.035-.543c.23.121.32.41.203.645s-.395.328-.625.207-.32-.406-.203-.641.398-.328.625-.211m2.094 14.695c.645-.594.895-1.652.895-2.555s-.25-1.961-.895-2.555c-.012-.102.027-.184.129-.191.977.539 1.734 1.156 1.734 2.746 0 1.375-.758 2.203-1.711 2.738-.125 0-.164-.082-.164-.152zm-.996-5.195a.55.55 0 0 1 .75.25c.137.281.027.625-.246.77a.55.55 0 0 1-.746-.25.58.58 0 0 1 .242-.77m0 4.422a.55.55 0 0 1 .75.25c.137.281.027.625-.246.77a.55.55 0 0 1-.746-.25.58.58 0 0 1 .242-.77m.996-5.16c.645-.594.895-1.652.895-2.555s-.25-1.957-.895-2.551c-.012-.105.027-.184.129-.191.977.539 1.734 1.152 1.734 2.742 0 1.375-.758 2.207-1.711 2.742-.125-.004-.164-.082-.164-.156zm-.996-5.195c.273-.141.609-.031.75.25s.027.625-.246.77-.609.031-.746-.25a.58.58 0 0 1 .242-.77m0 4.422c.273-.141.609-.031.75.25s.027.625-.246.77-.609.031-.746-.25a.58.58 0 0 1 .242-.77M12.235 33.26c.012.102-.027.184-.129.191-.977-.543-1.734-1.371-1.734-2.746 0-1.59.758-2.207 1.711-2.742.125.004.164.086.164.156-.656.625-.906 1.688-.906 2.586s.25 1.961.895 2.555m.945-5.195a.58.58 0 0 1 .242.77.55.55 0 0 1-.746.25.58.58 0 0 1-.242-.77c.137-.281.473-.395.746-.25m0 4.422a.58.58 0 0 1 .242.77.55.55 0 0 1-.746.25.58.58 0 0 1-.242-.77c.137-.281.473-.395.746-.25m-.945-5.16c.012.105-.027.184-.129.191-.977-.539-1.734-1.371-1.734-2.746 0-1.59.758-2.203 1.711-2.738.125.004.164.082.164.156-.656.625-.906 1.684-.906 2.582s.25 1.961.895 2.555m.945-5.195a.58.58 0 0 1 .242.77c-.137.281-.473.395-.746.25a.58.58 0 0 1-.242-.77.55.55 0 0 1 .746-.25m0 4.422a.58.58 0 0 1 .242.77c-.137.281-.473.395-.746.25a.58.58 0 0 1-.242-.77.55.55 0 0 1 .746-.25m11.797 8.75c.102-.016.18.027.188.133-.527 1.004-1.336 1.781-2.672 1.781-1.547 0-2.145-.781-2.668-1.758.004-.129.082-.172.152-.172.609.676 1.641.934 2.516.934s1.906-.258 2.484-.918m-5.105-1.043a.55.55 0 0 1 .75-.25.58.58 0 0 1 .242.77.55.55 0 0 1-.746.25.58.58 0 0 1-.246-.77m-.664 1.043c.098-.016.176.027.184.133-.523 1.004-1.332 1.781-2.672 1.781-1.547 0-2.145-.781-2.664-1.758.004-.129.082-.172.152-.172.605.676 1.637.934 2.512.934s1.91-.258 2.488-.918m-.805-1.043a.55.55 0 0 1 .75-.25.58.58 0 0 1 .242.77.55.55 0 0 1-.746.25.58.58 0 0 1-.246-.77m-5.066-.133l.039.043v1.516l-.039.043H11.86l-.039-.043V34.17l.039-.043zm14.012 0l.039.043v1.516l-.039.043h-1.477l-.043-.043V34.17l.043-.043zm-6.746 3.469v.059l-1.043 1.074h-.055l-1.047-1.074v-.059l1.047-1.07h.055zm9.617-9.836v.059l-1.043 1.07h-.059l-1.043-1.07v-.059l1.043-1.074h.059zm-19.121 0v.059l-1.043 1.07h-.055l-1.043-1.07v-.059l1.043-1.074h.055zm10.82-4.621c.746.313 1.582.883 2.02 1.582.098-.27.363-1.191-.395-1.629-.5-.285-1.199-.453-1.625.047m.477.922a5.34 5.34 0 0 0-.797-.359c-.055.301-.246 1.512.019 1.664.211.125.535.188.777.176l.043.035.086.609c.363-.125 1.27-.512 1.031-1.027-.215-.48-.711-.848-1.16-1.098m-6.742-.922c.746.313 1.582.883 2.02 1.582.098-.27.363-1.191-.395-1.629-.5-.285-1.199-.453-1.625.047m.477.922a5.34 5.34 0 0 0-.797-.359c-.055.301-.242 1.512.019 1.664.211.125.535.188.777.176l.043.035.086.609c.367-.125 1.266-.512 1.035-1.027-.219-.48-.715-.848-1.164-1.098m5.789 5.648c.746.313 1.582.883 2.02 1.582.098-.27.363-1.191-.395-1.625-.5-.289-1.199-.457-1.625.043m.477.922a5.34 5.34 0 0 0-.797-.359c-.055.301-.246 1.512.019 1.664.211.125.535.188.777.18l.043.031.086.609c.363-.125 1.27-.512 1.031-1.027-.215-.48-.711-.848-1.16-1.098m-6.019-.453c-.441-.273-.801-.414-.801-.414l-.019-.062c.129-.164.273-.262.426-.32.289-.117.727-.141 1.336.211.48.277.578.734.559 1.113s-.16.695-.16.695l-.07.004c-.312-.543-.828-.953-1.27-1.227m-.246.453a5.34 5.34 0 0 0-.797-.359c-.055.301-.242 1.512.019 1.664.211.125.535.188.777.18l.043.031.086.609c.367-.125 1.266-.512 1.035-1.027-.219-.48-.715-.848-1.164-1.098m4.082-3.543h4.863v1.289h-4.883v4.973h-1.258l-.008-4.973h-4.891v-1.289l4.906.012v-5.086H20.2zm0 0" fill="#233a70"/></svg>